<?xml version="1.0" encoding="UTF-8" standalone="no"?>
<!-- Created with Inkscape (http://www.inkscape.org/) -->

<svg
   width="1000"
   height="1000"
   viewBox="0 0 1000 1000"
   version="1.1"
   id="svg8"
   xmlns="http://www.w3.org/2000/svg"
   xmlns:svg="http://www.w3.org/2000/svg"
   xmlns:rdf="http://www.w3.org/1999/02/22-rdf-syntax-ns#"
   xmlns:cc="http://creativecommons.org/ns#"
   xmlns:dc="http://purl.org/dc/elements/1.1/">
  <defs
     id="defs2" />
  <metadata
     id="metadata5">
    <rdf:RDF>
      <cc:Work
         rdf:about="">
        <dc:format>image/svg+xml</dc:format>
        <dc:type
           rdf:resource="http://purl.org/dc/dcmitype/StillImage" />
      </cc:Work>
    </rdf:RDF>
  </metadata>
  <g
     id="layer1"
     transform="translate(0,-767.833)">
    <path
       id="path913"
       style="fill:#1a1a1a;stroke-width:1.87972"
       d="m 274.82611,971.94053 c -1.87741,-0.13928 -3.69585,0.6991 -6.11204,2.46598 -3.3875,2.47692 -3.59157,4.79519 -3.01122,34.30379 l 0.62253,31.6486 -15.03382,-0.6083 c -22.82201,-0.9226 -24.17219,0.1679 -39.09747,31.5367 -10.19166,21.4202 -13.39956,26.5273 -17.80097,28.3505 -1.08569,0.4498 -1.91408,0.7333 -2.6836,0.9298 -0.33346,0.2464 -0.68463,0.4536 -1.08861,0.6959 -1.53489,0.9208 -3.79429,2.4987 -6.40299,3.6277 -2.6086,1.129 -5.56763,1.8086 -7.99809,3.5118 -2.43036,1.7031 -4.33047,4.43 -5.49752,7.8862 -1.16715,3.4562 -1.60156,7.6419 -1.84949,14.1529 -0.24803,6.5109 -0.31022,15.3449 -0.0305,27.3901 0.27908,12.0452 -0.41513,26.7719 -0.41513,40.8167 -1e-4,14.0449 0.16814,26.0934 -0.49847,42.0294 -0.6665,15.9359 -0.85453,36.2868 -1.50561,51.1688 -0.0177,0.4127 -0.0423,0.6517 -0.061,1.058 v 3.0946 h -0.17491 c -0.58149,12.445 -1.19716,22.0575 -2.78548,26.9752 -1.7823,5.5184 -4.75925,5.8281 -9.56475,5.7661 -4.8056,-0.062 -11.43944,-0.4953 -17.23739,-0.4334 -5.79785,0.062 -10.75805,0.6186 -15.42656,1.3795 -3.15665,0.5145 -6.37622,0.9081 -9.72955,2.1039 -1.11423,0.3974 -6.23194,2.6133 -9.88424,13.227 -7.202418,20.9311 -4.651428,44.1221 -4.362238,45.7873 3.341448,19.2446 7.800048,25.3894 9.493588,27.0829 4.14119,4.1412 6.68645,4.9917 14.94434,5.0032 9.08347,0.01 10.23385,0.5048 13.1559,5.64 1.98481,3.4879 4.84425,5.7195 7.51994,5.8699 10.03123,0.5637 23.28172,-0.7605 25.46341,-2.5432 1.62062,-1.325 3.19415,-1.2193 5.07031,0.3377 4.61851,3.833 22.83554,0.5804 26.29148,-4.6939 l 2.85861,-4.3623 15.42448,6.2219 c 14.81152,5.9752 15.58771,6.591 19.52024,15.5018 3.95774,8.9677 4.58642,9.4579 18.71457,14.6107 l 14.6188,5.3328 -6.37247,3.3246 c -4.54559,2.3721 -5.56211,3.6216 -3.55042,4.3642 1.55072,0.5725 14.13887,4.9492 27.97409,9.7256 l 25.1561,8.6838 21.83768,-3.0804 c 12.01083,-1.6946 24.58565,-3.5605 27.94564,-4.1466 5.66358,-0.988 6.10996,-0.691 6.10996,4.0774 0,4.7828 0.42179,5.0587 6.01036,3.9411 3.3053,-0.6611 10.28354,-1.7035 15.50792,-2.3176 l 9.49963,-1.1169 2.11201,11.1213 c 2.64734,13.9298 10.66658,30.4954 19.76432,40.8309 7.56181,8.5907 24.91838,18.8073 36.61315,21.5528 26.98965,6.3362 193.53785,-3.4765 284.55502,-16.7653 32.59437,-4.759 79.20021,-13.1461 82.25185,-14.802 1.55395,-0.8431 -2.20097,-5.037 -10.95441,-12.2383 -7.32493,-6.0259 -12.61743,-11.5371 -11.76228,-12.2464 0.85516,-0.7091 9.591,-2.8357 19.41243,-4.7244 22.86357,-4.397 60.35229,-14.6354 72.03196,-19.6728 l 9.06023,-3.9065 -1.31445,-26.7961 c -0.72317,-14.7377 -1.63323,-27.3578 -2.02242,-28.0432 -0.38898,-0.6855 -3.96305,-1.7958 -7.94319,-2.4681 -6.96188,-1.1763 -7.32325,-1.6044 -9.49349,-11.3023 -1.2408,-5.5443 -4.6184,-13.343 -7.50576,-17.3289 -4.80415,-6.6318 -5.33387,-9.0447 -6.25246,-28.4258 -0.55212,-11.6484 -1.56281,-21.7362 -2.2442,-22.4176 -0.6815,-0.6815 -8.59563,-2.1212 -17.58732,-3.1984 l -16.34817,-1.9593 -4.19338,-56.3898 c -2.30629,-31.0152 -4.65434,-59.0059 -5.21886,-62.2006 -2.21649,-12.5423 -13.53061,-17.276 -60.49761,-25.3149 -22.39261,-3.8326 -27.98566,-4.0465 -78.16025,-2.9685 l -54.04181,1.1619 -0.0284,-23.9476 c -0.0156,-13.172 -0.65046,-24.8097 -1.40998,-25.8601 -0.75963,-1.0504 -4.19474,-4.2216 -7.63401,-7.0481 -5.85618,-4.8126 -7.40753,-5.1455 -24.43585,-5.1455 h -18.18349 l -3.75992,-6.8689 c -7.08918,-12.9523 -23.22265,-18.8487 -66.19265,-24.1917 l -9.8008,-1.2168 v -47.4373 c 0,-26.0903 -0.5467,-48.86064 -1.21466,-50.60116 -1.26299,-3.29119 -9.49307,-6.34273 -11.55257,-4.28281 -0.64816,0.64848 -0.96829,23.62617 -0.71015,51.06097 l 0.46805,49.8809 -10.01039,-1.3083 c -8.21154,-1.0728 -11.65123,-2.7774 -19.152,-9.4915 -7.82589,-7.0055 -12.68795,-9.3027 -33.73204,-15.9372 -14.12731,-4.4541 -25.8302,-9.2512 -27.5102,-11.278 -2.5214,-3.0419 -10.21822,-4.2373 -55.90755,-8.6797 l -52.98372,-5.1517 -0.58806,-31.6608 c -0.56951,-30.66797 -0.72713,-31.77533 -5.02551,-35.252 -2.64891,-2.14252 -4.58465,-3.25853 -6.46195,-3.39781 z m -0.60431,6.21986 c 0.74056,0.0146 1.54759,0.68347 2.88309,2.01835 2.61766,2.6164 2.98268,11.73591 2.98268,74.78676 0,66.8922 -0.22564,71.8499 -3.28999,72.4409 -3.08279,0.5946 -3.28999,-3.5478 -3.28999,-65.9525 0,-43.7657 -0.71192,-68.62794 -2.07732,-72.54453 -1.59082,-4.56361 -1.5179,-6.6329 0.30929,-8.83439 1.06871,-1.2881 1.74157,-1.92897 2.48224,-1.91459 z m -24.60482,68.96371 c 2.86163,0.1266 5.96994,0.4651 9.32275,1.0193 6.23683,1.0308 7.0499,1.7878 7.0499,6.5597 0,5.2922 -0.19678,5.3917 -10.46198,5.3917 -5.7541,0 -11.96989,0.8072 -13.81105,1.7925 -2.65651,1.4218 -4.21723,0.616 -7.56077,-3.9064 -2.31732,-3.1343 -3.92638,-5.9407 -3.57678,-6.2363 4.08827,-3.458 10.45303,-5.0005 19.03793,-4.6205 z m 39.62448,3.5728 c 5.944,0 58.4976,5.9371 59.25441,6.6939 0.45441,0.4544 -13.27049,0.826 -30.50111,0.826 -30.07536,0 -31.32919,-0.1508 -31.32919,-3.76 0,-2.0676 1.15872,-3.7599 2.57589,-3.7599 z m -30.77176,15.0379 h 7.51993 v 15.038 c 0,8.2707 -0.23887,15.0378 -0.52899,15.0378 -0.63993,0 -14.5089,-27.8801 -14.5089,-29.1663 0,-0.4998 3.3825,-0.9095 7.51796,-0.9095 z m 76.12971,0 c 26.36295,0 47.93175,0.6538 47.93175,1.4527 0,0.7995 2.95935,5.9484 6.5779,11.4427 3.61834,5.4943 6.57998,10.3386 6.57998,10.7653 0,0.4267 -2.47796,0.7752 -5.50565,0.7752 -5.97911,0 -9.47692,-2.7255 -14.56994,-11.3471 l -3.29207,-5.5688 h -42.82686 c -41.57481,0 -42.82895,-0.1105 -42.82895,-3.76 0,-3.6603 1.25435,-3.76 47.93384,-3.76 z m 63.38268,13.9982 c 0.85068,-0.8507 44.73521,11.7275 46.26947,13.2617 0.51472,0.5148 -0.26283,0.8003 -1.7274,0.6349 -2.65578,-0.3 -5.76847,-0.6025 -27.09914,-2.643 -9.14232,-0.8745 -11.93478,-1.9701 -14.7511,-5.7764 -1.91074,-2.5826 -3.12248,-5.0466 -2.69183,-5.4772 z m -111.31652,14.1976 h 42.29381 c 23.26141,0 42.29381,0.6512 42.29381,1.4467 0,0.7956 -17.97474,6.0092 -39.94377,11.5871 -21.96914,5.5779 -41.00155,10.5156 -42.29381,10.9728 -1.72646,0.6107 -2.35004,-2.4617 -2.35004,-11.5872 z m -67.15489,2.0611 c 3.08237,0.197 7.98788,3.6902 14.93819,10.5679 l 10.86285,10.7489 v 106.8282 38.6864 c -0.90787,-9.2438 -2.20691,-17.7857 -4.09161,-24.5824 -11.97884,-43.1973 -48.13114,-110.5515 -48.13114,-110.5515 0,0 28.21036,76.4802 35.90916,121.1133 1.62645,9.4293 1.87657,21.8115 1.44862,34.5154 -1.16225,-9.7977 -2.77402,-18.9589 -5.02551,-25.856 -11.31527,-34.6644 -43.15855,-88.0729 -43.15855,-88.0729 0,0 25.72406,61.1166 33.61412,97.1046 2.11648,9.6542 2.61776,23.2414 2.4314,36.373 -1.0684,-10.0588 -2.64495,-19.8089 -4.98895,-26.7146 -9.43088,-27.7867 -35.55517,-70.4632 -35.55517,-70.4632 0,0 21.27306,48.9369 27.95992,77.8204 2.8759,12.4225 2.50734,32.9535 1.78844,47.124 l -33.52463,-0.297 1.13736,-103.6359 c 1.24289,-113.3937 0.89005,-110.2137 12.21793,-110.2137 6.50435,0 27.31373,-12.6205 28.53974,-17.3087 0.58473,-2.236 1.77834,-3.3043 3.62783,-3.1862 z m 159.30526,0.7305 c 1.0585,-0.6542 25.3008,0.2981 53.87086,2.116 48.99473,3.1174 52.22305,3.5483 56.81697,7.5973 l 4.87092,4.293 -11.28005,-0.2767 c -6.20298,-0.1522 -24.38919,-0.8585 -40.4138,-1.5707 -16.02451,-0.712 -37.38184,-1.4075 -47.46173,-1.5442 -18.10984,-0.246 -18.32798,-0.3023 -18.32798,-4.8364 0,-2.5235 0.8663,-5.1241 1.92481,-5.7783 z m -11.04599,8.9238 c 0.69182,0.1916 0.80412,1.2741 0.30721,3.1741 -0.91266,3.49 -0.19428,3.9084 6.71634,3.9084 5.25897,0 7.73766,0.8156 7.73766,2.5475 0,1.8123 -3.93618,2.8557 -13.62791,3.6134 -14.0221,1.0963 -32.21955,7.6652 -36.91838,13.3269 -1.35477,1.6324 -5.19823,3.4807 -8.54135,4.1078 -3.34301,0.6273 -8.54635,3.1071 -11.5608,5.5099 l -5.47918,4.3683 -0.94006,73.0187 -0.93995,73.0188 -4.68779,-19.736 c -4.42308,-18.6216 -4.71789,-23.2156 -5.21885,-81.2976 -0.40513,-46.9582 -1.07778,-61.575 -2.83216,-61.6187 -5.41553,-0.1345 5.33314,-3.8373 38.11471,-13.1314 19.12574,-5.4227 35.7706,-10.239 36.98744,-10.7022 0.35856,-0.1365 0.65244,-0.1717 0.88307,-0.1079 z m 43.32533,9.2881 c 8.67761,0 21.64808,0.3537 39.50843,1.0479 57.90319,2.2505 105.73171,8.2666 108.62064,13.6645 2.32607,4.3465 11.91207,63.9003 10.51094,65.3014 -2.79277,2.7927 -4.69934,-4.0231 -8.53937,-30.5276 -2.2468,-15.5076 -4.48079,-29.577 -4.96446,-31.2641 -0.63067,-2.1999 -5.51263,-3.9298 -17.27001,-6.1221 -30.90457,-5.7629 -40.9133,-6.6656 -88.23773,-7.9575 -41.86763,-1.1428 -47.54069,-0.9534 -48.52793,1.6196 -1.18382,3.0849 5.285,49.5252 8.62687,61.9362 1.37269,5.0977 3.41219,7.8752 6.69999,9.1252 2.59985,0.9885 18.84072,1.9073 36.09031,2.0407 35.93623,0.2781 93.53159,2.6845 76.21711,3.1843 -6.34539,0.1831 -30.84416,2.4469 -54.44048,5.0316 -48.3923,5.3005 -51.50458,5.468 -51.50458,2.7569 0,-3.2067 -11.01118,-12.9556 -16.06545,-14.2241 -6.13797,-1.5405 -7.81276,-4.9906 -9.4488,-19.4511 -0.99329,-8.78 -0.78077,-11.5837 0.8037,-10.6044 2.7436,1.6959 2.73048,1.3472 -0.82005,-22.5518 -2.07096,-13.9404 -2.37556,-20.6138 -1.00506,-21.9842 0.68514,-0.6856 5.06833,-1.0255 13.74593,-1.0214 z m -42.03129,8.5048 c 3.67783,-0.3424 3.78575,0.5957 3.74981,4.1588 -0.0271,2.677 2.57182,16.6621 5.7742,31.0789 3.20249,14.4166 5.82317,26.7476 5.82317,27.4024 0,0.655 -4.42735,2.2141 -9.83747,3.4629 -10.54501,2.4341 -20.23841,9.9272 -20.23841,15.6443 0,4.2468 -2.53911,4.3584 -6.60644,0.2909 -1.8147,-1.8145 -2.76486,-4.9561 -2.27472,-7.52 0.6216,-3.2516 -0.0136,-4.4029 -2.42734,-4.4029 -1.79761,0 -4.18525,-1.1051 -5.30626,-2.4558 -2.55296,-3.0761 -6.75301,-44.8049 -5.15177,-51.1851 1.38384,-5.5125 17.22521,-13.4353 31.50014,-15.7542 2.14596,-0.3485 3.76908,-0.606 4.99509,-0.7202 z m -3.58709,2.3541 c -0.41898,-0.023 -0.93849,0.049 -1.53009,0.1973 -3.54938,0.8927 -9.67725,4.6062 -12.0775,7.8211 -3.46532,4.6414 -3.52293,6.054 -1.24925,30.3404 1.91554,20.4597 2.9782,25.6333 5.39991,26.2812 1.65833,0.4438 3.4749,0.9036 4.03671,1.0235 1.06444,0.2273 7.31888,-64.1293 6.346,-65.2974 -0.18834,-0.226 -0.5068,-0.3432 -0.92578,-0.3661 z m -97.60924,7.4141 9.86998,0.5697 9.86788,0.5676 v 74.2478 74.2497 l -9.86788,0.3234 -9.86998,0.3236 v -75.1409 z m 332.12863,2.3114 c 3.24749,0.038 5.3672,0.1666 5.57492,0.3744 0.41523,0.4152 0.51847,12.4559 0.22991,26.7573 l -0.52493,26.0026 -17.39209,-26.2142 -17.39199,-26.2142 17.16208,-0.5432 c 4.71956,-0.1491 9.09461,-0.2011 12.3421,-0.1627 z m -214.46609,2.6491 c 0.19615,-0.087 0.3895,-0.057 0.58597,0.1098 1.30956,1.1138 2.77621,8.2759 6.39278,26.6129 4.33578,21.9831 4.3837,23.0259 1.07632,23.0259 -2.04096,0 -3.87847,-1.7382 -4.47215,-4.2299 -6.77041,-28.4128 -7.87871,-36.7034 -5.61555,-41.9907 0.82745,-1.9329 1.44426,-3.2647 2.03263,-3.528 z m -58.8394,3.1007 c 1.01142,0.2788 0.94548,1.8012 0.73859,4.8241 -0.19918,2.9093 -1.79282,5.7597 -3.64407,6.519 -2.92008,1.1977 -3.28791,4.4174 -3.28791,28.6659 0,29.8973 -0.5418,28.7496 11.9453,25.2822 6.40289,-1.7777 7.6688,-1.558 10.88118,1.8903 1.9995,2.1461 5.62545,3.9024 8.05914,3.9024 2.43369,0 4.91269,1.2691 5.50773,2.8199 0.6641,1.7307 0,2.82 -1.72532,2.82 -1.54384,0 -3.57646,2.0228 -4.51694,4.4965 -1.86209,4.8977 -0.63712,12.4194 2.02242,12.4194 2.16534,0 2.17242,14.5021 0.0122,15.8375 -3.11133,1.923 -3.57313,8.3574 -0.96026,13.3941 3.04164,5.8625 3.44583,15.1452 0.73244,16.8222 -1.03392,0.6389 -1.88001,4.0215 -1.88001,7.518 0,3.4965 0.84609,6.881 1.88001,7.5199 1.03381,0.639 1.88001,2.3803 1.88001,3.87 0,3.6252 -35.52903,3.9505 -39.32738,0.3601 -2.05148,-1.9391 -2.107,-1.6125 -0.31127,1.8779 2.03617,3.9574 3.38104,4.2301 20.90783,4.2301 11.23422,0 18.73082,0.7526 18.73082,1.8799 0,1.1323 -7.75474,1.88 -19.50597,1.88 -15.85961,0 -19.99059,-0.5815 -22.08801,-3.1109 -2.11054,-2.5456 -2.48015,-16.4696 -2.03053,-76.5997 0.30199,-40.4179 0.98787,-75.741 1.52394,-78.496 0.64744,-3.3275 3.08258,-6.0087 7.25346,-7.988 4.10254,-1.9466 6.19027,-2.9113 7.20262,-2.6348 z m 43.8238,2.0489 c -0.37492,-0.3748 -1.27518,7.604 -2.00002,17.7298 -0.72473,10.1259 -1.78833,20.4055 -2.3642,22.8447 -0.98527,4.1735 -0.67296,4.3547 5.31647,3.0703 3.50031,-0.7507 6.6505,-1.621 6.99906,-1.9349 0.72161,-0.65 -6.90677,-40.6655 -7.95131,-41.7099 z m 202.42922,9.5749 c 0.39711,-0.3971 6.41393,7.8255 13.36956,18.2731 6.95584,10.4468 12.37575,19.2276 12.045,19.512 -0.33085,0.2845 -4.62382,1.1009 -9.54235,1.8149 -6.63634,0.9632 -9.1417,0.661 -9.70923,-1.1698 -1.63885,-5.2856 -6.84469,-37.7484 -6.16298,-38.4302 z m -187.92428,39.2643 c 1.19674,-0.068 2.18951,-0.041 3.03362,0.09 1.68802,0.2601 2.78371,0.9329 3.74366,2.0895 2.21868,2.6732 1.05184,2.9738 -11.38579,2.9217 -14.89673,-0.062 -14.72245,-2.375 0.34794,-4.6227 1.66323,-0.248 3.06383,-0.4104 4.26057,-0.4781 z m 268.34706,5.581 c 1.1033,0.2659 -0.44794,1.0551 -3.55449,2.6328 -3.54292,1.7993 -7.80432,6.2679 -9.90664,10.3889 -3.39916,6.6628 -4.31494,7.2348 -11.64007,7.2473 -4.37287,0.01 -51.51406,2.5429 -104.75686,5.6339 -53.2427,3.0911 -97.86134,5.6236 -99.1536,5.6236 -1.29227,0 -2.34993,-2.1874 -2.34993,-4.8688 0,-3.2944 -1.21956,-5.1954 -3.76002,-5.8597 -2.06773,-0.5407 -3.75794,-1.699 -3.75794,-2.5758 0,-3.4387 7.48775,-5.0179 29.13385,-6.1466 12.40606,-0.647 42.85738,-2.4366 67.66971,-3.9757 24.81182,-1.5389 60.7618,-3.645 79.88754,-4.6797 19.12626,-1.0345 41.54314,-2.344 49.81385,-2.9116 7.51379,-0.5155 11.2713,-0.7745 12.3746,-0.5086 z m 80.97417,1.5219 c 38.80839,-0.1271 69.4668,9.607 79.76555,25.325 2.28566,3.4882 4.32172,24.4963 9.32473,96.2094 3.52032,50.461 6.38705,94.7091 6.37247,98.3275 l -0.0265,6.5779 -3.83127,-4.6043 -3.83326,-4.6043 -76.46327,5.1089 c -7.50191,0.5012 -9.92164,0.7819 -16.23431,1.2289 -0.42065,0.4063 -0.92162,0.6652 -1.47717,0.6938 l -0.87485,0.045 c -0.50774,0.026 -0.98693,-0.1505 -1.41821,-0.4538 -36.61878,2.6364 -57.2196,4.5687 -58.33686,5.9961 -1.03381,1.3211 -3.97295,3.8435 -6.52904,5.6054 -2.5563,1.7616 -5.59263,3.2026 -6.74895,3.2026 -2.17899,0 -3.2054,-26.3656 -5.7966,-148.9146 l -1.26154,-59.6288 8.28707,-8.232 c 14.15117,-14.0553 41.99816,-21.7613 79.08197,-21.8825 z m -354.62957,3.6949 c 17.96181,0 21.61589,0.4771 21.61589,2.82 0,2.3428 -3.65408,2.818 -21.61589,2.818 -17.96161,0 -21.61589,-0.4752 -21.61589,-2.818 0,-2.3429 3.65428,-2.82 21.61589,-2.82 z m 358.69679,3.5037 a 17.795548,7.0414038 0.19769472 0 0 -17.82128,6.9807 17.795548,7.0414038 0.19769472 0 0 17.77243,7.1029 17.795548,7.0414038 0.19769472 0 0 17.8193,-6.9808 17.795548,7.0414038 0.19769472 0 0 -17.77045,-7.1028 z m -359.63685,7.7742 c 10.02509,0 16.9179,0.7661 16.9179,1.88 0,1.1139 -6.89281,1.88 -16.9179,1.88 -10.02519,0 -16.9179,-0.7661 -16.9179,-1.88 0,-1.1139 6.89271,-1.88 16.9179,-1.88 z m -0.93995,9.3979 c 22.24332,0 23.4959,0.2011 23.4959,3.7601 0,3.5589 -1.25258,3.76 -23.4959,3.76 -22.24322,0 -23.4959,-0.2011 -23.4959,-3.76 0,-3.559 1.25268,-3.7601 23.4959,-3.7601 z m 284.7767,1.8801 0.0367,12.6879 c 0.0198,6.9785 1.27247,50.3297 2.78329,96.3356 1.51061,46.0059 2.76361,84.3819 2.7834,85.2793 0.0146,0.6436 6.14652,0.6289 12.96464,0.3623 l -9.78862,-194.6163 c -8.3e-4,-0.018 0,-0.031 0,-0.049 z m 15.48354,0.01 9.77236,194.3029 c 6.88302,-0.4597 13.30695,-1.1075 14.01856,-1.7864 0.40721,-0.3885 -1.50978,-42.3843 -4.26057,-93.3244 -2.75079,-50.9401 -4.98822,-94.0991 -4.97051,-95.9083 0.0271,-2.8209 -1.97356,-3.2715 -14.55984,-3.2838 z m 26.77776,1.3835 c -3.29895,0.063 -5.41824,0.2319 -5.56273,0.4903 -0.38908,0.6963 9.78955,190.7913 10.21593,190.7913 1.78042,0 7.6689,-0.3711 14.31358,-0.6634 l -9.71945,-188.7972 c -0.0312,-0.6115 0.0417,-1.1869 0.17908,-1.7173 -3.44219,-0.076 -6.96574,-0.1505 -9.42641,-0.1041 z m 15.6971,0.2421 c 0.10907,0.3944 0.21533,0.7932 0.23803,1.2351 l 9.72153,188.8318 c 6.25663,-0.3052 14.09856,-0.5711 14.19357,-0.6572 0.18959,-0.1721 -0.83151,-21.446 -2.26868,-47.2747 -1.43728,-25.8287 -3.6597,-68.2647 -4.93999,-94.303 l -2.32764,-47.3436 z m 39.45759,0.2482 9.64205,187.2795 c 6.45039,-0.4838 11.92509,-1.1234 12.40512,-1.6033 0.57045,-0.5706 -1.72094,-42.5815 -5.0926,-93.3569 l -6.13037,-92.3193 z m 16.87727,0 1.11497,10.808 c 0.61347,5.9446 3.26811,45.067 5.89838,86.9376 2.63026,41.8705 5.22062,78.9298 5.75597,82.3556 l 0.97256,6.2301 11.98395,-1.0112 -12.96266,-185.3201 z m 19.47545,0 12.91787,184.6873 c 6.11235,-0.5612 12.40523,-1.1662 12.60451,-1.3286 0.25095,-0.2044 -2.2666,-41.5444 -5.59523,-91.8655 l -6.05308,-91.4932 z m -43.05073,0.1405 c -7.75453,0.1544 -11.76425,0.7452 -11.76425,2.2096 0,1.2924 1.6475,31.9552 3.6522,68.1396 2.00471,36.1845 4.23609,77.5218 4.95832,91.8615 l 1.31237,26.0717 11.50174,-0.6654 z m -131.60181,3.5951 14.56797,0.025 v 54.5117 54.5098 l -10.80795,0.024 c -5.94463,0.012 -13.76948,0.456 -17.38793,0.9888 -6.0813,0.8955 -7.57441,0.01 -19.74202,-11.7682 -21.99258,-21.2817 -44.38852,-30.1057 -81.05751,-31.9356 -20.90032,-1.0429 -20.91199,-1.0461 -20.91199,-5.8475 0,-5.2659 -6.41924,-11.6115 -11.7479,-11.6115 -5.52679,0 -12.05437,6.6127 -12.30741,12.466 -0.2171,5.0029 -0.90318,5.4791 -9.4712,6.5719 -8.58656,1.0952 -21.83997,4.2234 -28.15118,6.6451 -1.90553,0.7313 -2.70193,-0.3485 -2.70193,-3.6623 0,-2.5848 1.26913,-5.1874 2.81996,-5.7825 1.6276,-0.6245 2.81996,-3.4334 2.81996,-6.645 0,-3.0601 -1.26924,-6.8319 -2.81996,-8.3826 -1.55083,-1.5509 -2.81996,-5.0542 -2.81996,-7.7867 0,-2.7321 1.26913,-6.2398 2.81996,-7.7905 1.55072,-1.5509 2.81996,-5.1906 2.81996,-8.0917 0,-2.9009 -1.26924,-6.3287 -2.81996,-7.6156 -1.55083,-1.2872 -2.81996,-4.7088 -2.81996,-7.6014 0,-5.0899 0.37825,-5.2887 11.74789,-6.2728 12.07375,-1.045 161.90271,-4.9898 187.97116,-4.9482 z m -261.74885,3.7824 h 17.85598 17.85785 v 7.52 7.518 h -17.85785 -17.85598 v -7.518 z m 17.85598,18.7979 c 22.24332,0 23.4959,0.201 23.4959,3.76 0,3.5589 -1.25258,3.758 -23.4959,3.758 -22.24322,0 -23.4959,-0.1991 -23.4959,-3.758 0,-3.559 1.25268,-3.76 23.4959,-3.76 z m -17.85598,13.158 h 17.85598 17.85785 v 6.58 6.578 h -17.85785 -17.85598 v -6.578 z m 5.1599,18.393 c 3.14342,-0.05 7.26846,-0.027 12.69608,0.017 21.24274,0.1689 22.59241,0.404 23.15807,4.0428 0.5793,3.7268 -0.24439,3.8638 -23.15807,3.8638 -23.24672,0 -23.74383,-0.087 -23.15609,-4.0428 0.43357,-2.9184 1.02954,-3.7296 10.46001,-3.8801 z m -91.62752,0.1669 6.11005,0.588 c 5.73473,0.5527 6.06839,0.9826 5.47315,7.0255 -1.21758,12.3593 1.43915,22.7166 6.40497,24.9792 2.83913,1.2936 4.56778,3.6608 4.56778,6.2503 0,6.6724 -3.74461,8.3927 -11.49164,5.2799 -8.97512,-3.6062 -11.06431,-8.918 -11.06431,-28.1166 z m 86.46762,11.516 h 17.85598 17.85785 v 12.2179 12.2179 l -13.62791,-0.2564 c -22.55699,-0.4236 -22.08592,-0.1451 -22.08592,-13.0317 z m 130.73301,8.3744 c 18.31705,-0.2095 36.43085,0.8978 45.65912,3.4183 16.97863,4.637 33.50265,13.4012 45.05074,23.8967 l 9.97581,9.0683 -15.61375,1.119 c -8.58865,0.6162 -24.49836,1.3322 -35.3537,1.589 -10.85535,0.257 -19.64942,1.1679 -19.54264,2.0245 0.10719,0.8567 6.45133,13.3093 14.09793,27.673 l 13.90261,26.1165 20.80616,0.051 20.80615,0.053 12.3969,18.3279 c 6.81895,10.08 12.68243,19.1322 13.02985,20.1164 0.70681,2.0023 1.13528,1.9588 -48.12916,4.8383 -19.58108,1.1445 -37.17683,2.9243 -39.10351,3.9554 -2.85465,1.5278 -4.81592,0.5485 -10.59231,-5.2942 -5.70514,-5.7703 -8.29894,-11.0197 -13.30039,-26.9059 -6.99084,-22.205 -10.67939,-30.2094 -20.80198,-45.1483 -20.97481,-30.955 -42.4159,-38.8834 -67.79796,-25.0687 -20.6926,11.2622 -34.25811,35.0504 -40.04346,70.217 -0.92454,5.6193 -0.0896,4.7235 5.72545,-6.1385 6.1935,-11.5699 20.8873,-30.6437 22.42365,-29.1074 0.34773,0.3477 -0.93527,5.6708 -2.85059,11.8294 -1.91449,6.1588 -4.09067,17.7044 -4.83425,25.6566 l -1.35092,14.4602 -10.59845,1.1169 c -5.82879,0.6152 -13.04381,1.5138 -16.03493,1.996 l -5.43856,0.8769 1.04173,-14.574 c 1.27998,-17.8874 8.32457,-41.0107 19.36972,-63.5821 13.45768,-27.502 28.36796,-39.4118 60.22093,-48.1048 10.04311,-2.7408 28.56287,-4.2666 46.87981,-4.4762 z m -153.76086,10.4215 h 8.75293 c 6.6204,0 9.04763,0.802 9.9656,3.29 1.98179,5.3714 4.43621,6.0512 21.98622,6.0814 16.61903,0.029 16.71487,0.054 13.33696,3.7865 -3.06581,3.3878 -5.7891,3.76 -27.54677,3.76 -19.23346,0 -24.145,-0.5253 -24.145,-2.584 0,-1.4217 -0.52785,-5.2292 -1.17393,-8.46 z m -222.71242,30.9283 c 1.6428,0.4599 3.38541,2.3071 5.11093,5.7276 4.27161,8.4672 3.94284,39.8435 -0.48826,46.6051 -7.71338,11.77 -13.58322,1.3767 -13.58322,-24.0493 0,-18.559 4.03202,-29.663 8.96055,-28.2834 z m 103.87992,1.0275 h 4.47007 l -4.44767,4.4477 c -10.73982,10.7399 -16.14514,30.1392 -12.33804,44.2776 2.48744,9.2376 2.23264,9.9826 -2.50254,7.3328 -8.51312,-4.7642 -11.25621,-24.9524 -5.20251,-38.2795 4.15359,-9.1441 13.87688,-17.7786 20.02069,-17.7786 z m -78.29244,0.3682 c 8.72365,-0.9558 14.95497,31.2554 9.43047,53.1954 -1.14049,4.5296 -3.54168,9.5637 -5.33481,11.1864 -2.97028,2.6881 -3.52104,2.6566 -6.19745,-0.354 -4.32631,-4.8666 -7.04876,-16.7004 -7.06022,-30.6903 -0.0104,-12.2049 4.16994,-30.7016 7.38774,-32.6905 0.60107,-0.3713 1.19267,-0.5831 1.77427,-0.647 z m 98.57159,1.1374 c 1.40112,-0.067 2.88194,-0.043 4.45172,0.063 l 9.62184,0.649 -7.25753,6.5556 c -12.85223,11.6112 -18.33475,34.809 -12.25459,51.8464 1.38352,3.8768 1.98012,7.0223 1.32654,6.989 -0.65358,-0.034 -5.19501,-1.8282 -10.09176,-3.9879 -7.35992,-3.246 -9.23181,-5.109 -10.79774,-10.7469 -3.35968,-12.0953 -2.29941,-23.2475 3.25343,-34.2082 5.98797,-11.8198 11.9401,-16.6938 21.74809,-17.1601 z m 41.69356,1.7621 -9.32056,6.3541 c -16.72425,11.4035 -23.66279,34.0817 -15.44281,50.473 3.21592,6.4129 3.1979,6.5801 -1.02142,9.8272 -5.36366,4.1286 -5.87754,4.1333 -9.39796,0.098 -5.57169,-6.3875 -7.55702,-12.455 -7.80277,-23.8377 -0.47096,-21.8266 14.04752,-39.8162 33.84403,-41.9357 z m 553.05271,0.3072 5.88005,0.2563 c -2.16263,1.7871 -3.56668,5.9009 -3.56876,10.456 0,3.9018 1.04027,7.5272 2.74475,9.6055 -2.03669,-0.4588 -2.6662,-1.2702 -2.67558,-2.7468 -0.0115,-1.809 -0.55149,-6.5022 -1.20038,-10.4295 z m -529.01761,0.3499 c 0.71702,0.021 1.64312,0.1776 2.84038,0.4171 2.89299,0.5787 17.65252,2.1049 32.79813,3.3918 15.14539,1.2869 27.10882,3.0335 26.58452,3.882 -0.5243,0.8483 -2.40764,1.5423 -4.18317,1.5423 -2.63255,0 -3.0955,1.3862 -2.51077,7.5179 0.60847,6.3796 0.18938,7.4886 -2.76913,7.3186 -9.60079,-0.5511 -52.53995,-9.9798 -53.74065,-11.8008 -0.75952,-1.1525 -1.39539,-4.5274 -1.40998,-7.4998 -0.0198,-3.6899 0.2397,-4.8329 2.39067,-4.7691 z m 539.72785,0.1159 2.23409,0.098 4.81185,0.2096 c -1.57395,2.0026 -2.5514,5.8071 -2.55349,9.9391 0,4.2993 1.06403,8.2256 2.73861,10.1487 h -3.17196 c -1.60229,0 -2.65777,-0.044 -3.88201,-0.073 1.94314,-1.9517 3.16488,-5.835 3.16988,-10.0755 0,-4.3787 -1.30664,-8.3632 -3.34697,-10.2464 z m 12.00635,0.5209 3.17404,0.1385 0.62264,9.8678 0.62254,9.868 h -4.7631 c 1.67458,-1.9231 2.73413,-5.8494 2.7386,-10.1487 0,-3.9806 -0.91057,-7.6688 -2.39472,-9.7256 z m -14.6636,1.5687 c 0,0 -2.23253,4.2951 -2.32962,7.0907 -0.10657,3.0699 1.99596,8.3827 1.99596,8.3827 0,0 -3.21384,-5.5314 -3.09467,-9.1558 0.11376,-3.4598 3.42833,-6.3176 3.42833,-6.3176 z m 11.99219,0 c 0,0 -1.88335,4.2951 -1.96554,7.0907 -0.0895,3.0699 1.68468,8.3827 1.68468,8.3827 0,0 -2.71089,-5.5314 -2.61036,-9.1558 0.0958,-3.4598 2.89122,-6.3176 2.89122,-6.3176 z m -257.16483,4.6532 c -3.2105,2.7553 -5.05843,6.7745 -5.06009,11.0054 0.0104,4.2781 1.89896,8.336 5.17406,11.0887 -4.80633,0.2256 -8.42874,0.3264 -12.83244,0.4659 3.63594,-2.7305 5.7817,-7.0076 5.7967,-11.5546 -8.3e-4,-4.1366 -1.76698,-8.0759 -4.85467,-10.8284 l 3.92274,-0.065 c 3.4675,-0.058 5.05812,-0.059 7.8537,-0.1118 z m 19.17637,0.2402 c 7.61015,0.8978 7.48952,3.8414 8.8547,12.6492 l 1.19226,7.695 -9.43046,0.5432 c 2.65651,-2.701 4.15119,-6.3338 4.16483,-10.1222 0,-4.1031 -1.73719,-8.0142 -4.78133,-10.7652 z m -50.57879,0.2664 c -2.88684,2.7304 -4.52756,6.5253 -4.53933,10.4988 0.0104,4.8359 2.42379,9.3505 6.44372,12.0389 l -9.17826,0.01 v -5.404 c 0,-2.9724 -0.52097,-8.0088 -1.15768,-11.1926 l -1.15767,-5.7884 z m 10.29719,0.098 c 0,0 8.18695,3.6431 8.46811,8.055 0.2944,4.6222 -7.64608,11.6747 -7.64608,11.6747 0,0 5.19729,-6.773 4.93394,-10.6878 -0.2397,-3.565 -5.75597,-9.0419 -5.75597,-9.0419 z m -459.07922,1.5544 c -0.45993,0.2278 -1.02996,0.7532 -1.76813,1.4914 -4.18546,4.1854 -4.42235,24.7022 -0.33575,29.1195 2.55401,2.7608 2.96914,2.3288 4.40506,-4.6022 0.87203,-4.2084 1.02152,-12.1577 0.33366,-17.6626 -0.87796,-7.0269 -1.25518,-9.0292 -2.63484,-8.3461 z m 492.70761,0.079 c 0,0 6.83947,3.0449 7.07438,6.7306 0.24595,3.8613 -6.38674,9.754 -6.38674,9.754 0,0 4.34016,-5.6576 4.12015,-8.928 -0.20022,-2.9782 -4.80779,-7.5566 -4.80779,-7.5566 z m -465.88109,1.3408 c -0.29533,-0.2733 -0.49045,0.044 -0.54733,0.9889 -0.10313,1.723 -1.16194,3.4569 -2.35202,3.8536 -1.19017,0.3968 -2.57546,5.683 -3.07841,11.7479 -0.70275,8.4746 -0.10001,12.5367 2.60026,17.5507 3.43427,6.377 3.54042,6.4232 4.76925,2.0367 1.73875,-6.2063 1.5802,-27.9191 -0.24627,-33.6222 -0.45409,-1.418 -0.85015,-2.2821 -1.14548,-2.5556 z m 155.90338,9.7724 23.65466,4.173 c 32.7874,5.7851 33.26462,6.0989 15.4001,10.1792 l -15.24144,3.4812 -0.28481,12.3808 c -0.15741,6.8094 -0.48399,13.2268 -0.72442,14.2608 -0.23949,1.0338 -0.53389,2.8439 -0.65306,4.0224 -0.11928,1.1786 -4.10535,7.4252 -8.85877,13.8823 -7.00448,9.5149 -8.43946,12.7618 -7.56681,17.1254 0.59223,2.9611 0.46472,5.2675 -0.28481,5.1252 -0.74942,-0.1422 -12.78223,-4.242 -26.73911,-9.1111 -30.45945,-10.6261 -31.31148,-11.9579 -17.98411,-28.1225 8.14174,-9.8752 8.45968,-10.7354 8.98294,-24.2996 l 0.54118,-14.0593 14.87923,-4.5189 z m 153.88504,12.3929 c 7.8112,0.3085 15.83585,4.524 23.13785,12.6066 29.29323,32.4238 24.37804,107.7687 -7.91068,121.2597 -7.90246,3.3019 -13.35289,3.1918 -20.29748,-0.4069 -21.2216,-10.9973 -34.32364,-42.1876 -32.31997,-76.9415 1.16111,-20.1503 6.09672,-34.6708 15.52823,-45.6896 6.4533,-7.5391 14.05095,-11.1369 21.86205,-10.8283 z m 5.21479,7.9921 c -0.69639,0.1238 -0.99162,0.4224 -0.71827,0.8646 0.54659,0.8845 2.26212,1.6095 3.81294,1.6095 1.55103,0 2.29722,0.844 1.65822,1.8779 -0.63889,1.0338 -2.89923,1.88 -5.02353,1.88 -11.33027,0 -33.419,21.4508 -37.45747,36.3751 -1.16101,4.2892 -1.70573,13.5224 -1.2106,20.5172 0.74213,10.4826 2.15003,14.7768 8.01028,24.4358 9.7783,16.117 13.53488,19.982 24.40335,25.1074 5.16927,2.4376 10.6671,4.4226 12.21793,4.409 1.55072,-0.013 -0.56452,-1.5962 -4.69998,-3.5179 -4.13525,-1.9217 -10.81461,-6.9291 -14.84256,-11.1273 l -7.32263,-7.632 6.16891,-5.1924 c 8.23884,-6.9324 11.29829,-14.9732 11.29829,-29.7034 0,-14.9167 -4.0816,-25.851 -11.9676,-32.0678 -6.13537,-4.8364 -4.82414,-5.9729 3.31843,-2.877 3.02331,1.1508 5.15948,1.1548 5.86588,0.013 1.87907,-3.0404 8.12424,-5.6991 9.22087,-3.9249 0.56555,0.9151 -0.62587,3.768 -2.64902,6.3399 -3.45531,4.3929 -3.50125,5.126 -0.76504,12.0918 2.6112,6.647 3.48115,7.333 8.40301,6.6105 7.7813,-1.1419 7.64223,4.9221 -0.14855,6.4804 -5.07531,1.0149 -5.63993,1.8411 -5.63993,8.2523 v 7.1233 l 14.18336,1.3286 c 7.80026,0.7308 14.73506,0.7764 15.41031,0.1021 2.14742,-2.1475 -2.78423,-33.5824 -7.04803,-44.9287 -4.56788,-12.155 -13.9845,-22.8541 -21.35546,-24.263 -1.32987,-0.2543 -2.42682,-0.305 -3.12311,-0.181 z m 422.13043,34.4421 c 3.56844,-0.1083 5.85035,-0.084 6.49653,0.096 6.90855,1.9219 3.19811,2.876 -31.9538,8.2259 -58.80096,8.9492 -159.09171,18.7934 -243.89298,23.9395 -42.70394,2.5914 -41.69544,2.1104 -34.38312,16.4439 7.6264,14.9488 32.3006,31.3656 54.174,36.0434 5.91421,1.2647 11.55726,3.0117 12.53941,3.882 2.01272,1.7832 -51.922,1.6327 -80.97209,-0.2258 -29.42271,-1.8823 -30.50122,-3.2501 -30.95083,-39.2703 -0.17803,-14.2612 0.44055,-20.0909 2.31546,-21.8194 1.71479,-1.5808 15.8846,-3.0747 42.97134,-4.5291 45.65735,-2.4515 157.93112,-11.0171 246.24292,-18.7877 24.42449,-2.1492 46.70772,-3.6733 57.41316,-3.998 z m -595.87146,4.4945 c -3.59011,-0.1245 -7.74692,0.374 -14.59432,1.4221 l -15.44895,2.3663 21.56099,7.0684 c 24.73514,8.1089 24.38095,8.042 24.38095,4.6023 0,-1.4241 1.26925,-3.6429 2.81997,-4.9299 4.45141,-3.6943 3.49271,-4.7397 -7.52202,-8.2118 -4.58288,-1.4446 -7.6065,-2.1929 -11.19662,-2.3174 z m 152.24109,3.0112 c 8.07288,0 12.28709,24.5395 5.50168,32.0373 -1.83021,2.0224 -4.41797,3.6765 -5.74993,3.6765 -4.50215,0 -8.27279,-8.1409 -8.27279,-17.8578 0,-9.9169 3.78835,-17.856 8.52104,-17.856 z m 28.92633,32.1472 c -1.0984,0.083 -2.21149,0.3182 -3.25343,0.7223 -2.94653,1.1428 -2.93184,1.4151 0.19741,3.7193 3.80961,2.8053 11.24683,1.6461 10.17114,-1.585 -0.66338,-1.9924 -3.81992,-3.106 -7.11512,-2.8566 z m 42.82082,15.7847 1.4405,7.113 c 0.79203,3.9122 1.07517,12.1629 0.62868,18.336 -0.98547,13.6248 -8.06152,24.891 -19.27001,30.6823 -9.04722,4.6744 -26.20659,5.9274 -33.93352,2.4781 l -5.63794,-2.5168 10.59637,-1.1028 c 23.9753,-2.4948 38.01594,-16.4065 43.70379,-43.3009 z m -48.44043,3.4853 c -1.15622,-0.1846 -2.2343,-0.1633 -3.05196,0.1505 -2.32805,0.8933 -2.43744,1.6467 -0.56357,3.9044 2.56661,3.0926 11.26162,3.8532 11.26162,0.9849 0,-2.0621 -4.17765,-4.486 -7.64609,-5.0398 z" />
  </g>
</svg>
